<svg xmlns="http://www.w3.org/2000/svg" viewBox="0 0 64 64"><path d="M64 36.55v-2.78c0-1.08-.88-1.97-1.97-1.97h-6.19v-8.17c0-1.31-1.06-2.38-2.37-2.38h-6.74V13.9c0-1.08-.88-1.97-1.97-1.97H1.96C.88 11.93 0 12.81 0 13.9v27c0 1.08.88 1.97 1.96 1.97h17.39l-1.03 2.64h-.25c-2.66 0-4.82 2.16-4.82 4.82v.77c0 .54.43.97.97.97h18.31c.54 0 .97-.43.97-.97v-.77c0-2.66-2.16-4.82-4.82-4.82h-.25l-1.03-2.64h8.12v2.75c0 1.31 1.06 2.38 2.37 2.38h14.09v2.11c0 1.08.88 1.97 1.96 1.97h8.1c1.08 0 1.97-.88 1.97-1.97V36.55zM53.47 23.2c.24 0 .43.2.43.44v1.47H37.44v-1.47c0-.24.19-.44.43-.44h15.6zM27.75 47.44h.92c1.52 0 2.78 1.19 2.88 2.69H15.19c.1-1.5 1.35-2.69 2.88-2.69h9.68zM20.4 45.5l1.03-2.64h3.87l1.03 2.64H20.4zm15.1-4.58-33.56-.03.03-27.02 42.83.03v7.36h-1.81v-4.78c0-.54-.43-.97-.97-.97H4.72c-.54 0-.97.43-.97.97V38.3c0 .54.43.97.97.97H35.5v1.65zm0-17.28v13.69H5.69V17.44h35.35v3.81h-3.17a2.392 2.392 0 0 0-2.37 2.39zm16.46 22.42H37.87c-.24 0-.43-.2-.43-.44v-.92h14.53v1.36zm0-12.28v8.98H37.44v-15.7h16.47v4.76c-1.08.01-1.95.88-1.95 1.96zm10.07 16.35-8.13-.03v-1.3h8.13v1.33zm.01-3.27h-8.13l.01-9.35h8.13l-.01 9.35zm.02-11.29h-8.13v-1.82h8.1c.01 0 .03.01.03.03v1.79z" fill="currentColor"/></svg>